# xmcd
#
# Track frame offsets: 
#        150
#        7418
#        8679
#        10392
#        20210
#        29890
#        37790
#        47572
#        50506
#        60200
#        70092
#        73561
#        74903
#        75930
#        85714
#        95775
#        106054
#        109066
#        111251
#        121413
#        122656
#        123767
#        136406
#        138085
#        150353
#        152689
#        153878
#        166471
#        179381
#        186133
#        189230
#        196467
#        198517
#        201011
#        202120
#        203534
#        212477
#        215206
#        224752
#        233781
#        243248
#        244351
#        253373
#        257492
#        266462
#        268933
#        276891
#        286316
#        289455
#        298142
#        303510
#        312502
#        337241
#        348148
#
# Disc length: 4778 seconds
#
# Revision: 0
# Processed by: cddbd v1.5.2PL0 Copyright (c) Steve Scherf et al.
# Submitted via: ExactAudioCopy v0.95b3
#
DISCID=3d12a836
DTITLE=Elvis Presley  - Elvis' Gold Records volume 1CD 1
DYEAR=1900
DGENRE=
TTITLE0=Elvis Presley - I Need Your Love Tonight - t1
TTITLE1=Elvis Presley - I Need Your Love Tonight - t2
TTITLE2=Elvis Presley - I Need Your Love Tonight - t3
TTITLE3=Elvis Presley - I Need Your Love Tonight - t4
TTITLE4=Elvis Presley - I Need Your Love Tonight - t5
TTITLE5=Elvis Presley - I Need Your Love Tonight - t6
TTITLE6=Elvis Presley - I Need Your Love Tonight - t7
TTITLE7=Elvis Presley - I Need Your Love Tonight - t8
TTITLE8=Elvis Presley - I Need Your Love Tonight - t9
TTITLE9=Elvis Presley - I Need Your Love Tonight - t10a
TTITLE10=Elvis Presley - I Need Your Love Tonight - t10b
TTITLE11=Elvis Presley - I Need Your Love Tonight - t11
TTITLE12=Elvis Presley - I Need Your Love Tonight - t12
TTITLE13=Elvis Presley - I Need Your Love Tonight - t13
TTITLE14=Elvis Presley - I Need Your Love Tonight - t14
TTITLE15=Elvis Presley - I Need Your Love Tonight - t15
TTITLE16=Elvis Presley - I Need Your Love Tonight - t16
TTITLE17=Elvis Presley - I Need Your Love Tonight - t17
TTITLE18=Elvis Presley - I Need Your Love Tonight - t18
TTITLE19=Elvis Presley - A Fool Such As I - t1
TTITLE20=Elvis Presley - A Fool Such As I - t2
TTITLE21=Elvis Presley - A Fool Such As I - t3
TTITLE22=Elvis Presley - A Fool Such As I - t4
TTITLE23=Elvis Presley - A Fool Such As I - t5
TTITLE24=Elvis Presley - A Fool Such As I - t6
TTITLE25=Elvis Presley - A Fool Such As I - t7
TTITLE26=Elvis Presley - A Fool Such As I - t8
TTITLE27=Elvis Presley - A Fool Such As I - t9
TTITLE28=Elvis Presley - I Got Stung - t1
TTITLE29=Elvis Presley - I Got Stung - t2
TTITLE30=Elvis Presley - I Got Stung - t3
TTITLE31=Elvis Presley - I Got Stung - t4
TTITLE32=Elvis Presley - I Got Stung - t5
TTITLE33=Elvis Presley - A Fool Such As I - t6
TTITLE34=Elvis Presley - A Fool Such As I - t7
TTITLE35=Elvis Presley - A Fool Such As I - t8
TTITLE36=Elvis Presley - A Fool Such As I - t9
TTITLE37=Elvis' Gold Records Volume 2 CD 2 - I Got Stung - t10
TTITLE38=Elvis Presley - A Fool Such As I - t11
TTITLE39=Elvis Presley - A Fool Such As I - t12
TTITLE40=Elvis Presley - A Fool Such As I - t13
TTITLE41=Elvis Presley - A Fool Such As I - t14
TTITLE42=Elvis Presley - A Fool Such As I - t15
TTITLE43=Elvis Presley - A Fool Such As I - t16
TTITLE44=Elvis Presley - A Fool Such As I - t17
TTITLE45=Elvis Presley - A Fool Such As I - t18
TTITLE46=Elvis Presley - A Fool Such As I - t20
TTITLE47=Elvis Presley - A Fool Such As I - t21
TTITLE48=Elvis Presley - A Fool Such As I - t22
TTITLE49=Elvis Presley - A Fool Such As I - t23
TTITLE50=Elvis Presley - A Fool Such As I - t24
TTITLE51=Elvis Presley - Press Interview With Elvis presley
TTITLE52=Elvis Presley - Elvis Presley's Newsreel Interview
TTITLE53=Elvis Presley - Pat Hernon Interviews Elvis
EXTD=
EXTT0=
EXTT1=
EXTT2=
EXTT3=
EXTT4=
EXTT5=
EXTT6=
EXTT7=
EXTT8=
EXTT9=
EXTT10=
EXTT11=
EXTT12=
EXTT13=
EXTT14=
EXTT15=
EXTT16=
EXTT17=
EXTT18=
EXTT19=
EXTT20=
EXTT21=
EXTT22=
EXTT23=
EXTT24=
EXTT25=
EXTT26=
EXTT27=
EXTT28=
EXTT29=
EXTT30=
EXTT31=
EXTT32=
EXTT33=
EXTT34=
EXTT35=
EXTT36=
EXTT37=
EXTT38=
EXTT39=
EXTT40=
EXTT41=
EXTT42=
EXTT43=
EXTT44=
EXTT45=
EXTT46=
EXTT47=
EXTT48=
EXTT49=
EXTT50=
EXTT51=
EXTT52=
EXTT53=
PLAYORDER=
